<?xml version="1.0" encoding="UTF-8" standalone="no"?>
<!DOCTYPE svg PUBLIC "-//W3C//DTD SVG 1.1//EN"
 "http://www.w3.org/Graphics/SVG/1.1/DTD/svg11.dtd">
<!-- Generated by graphviz version 12.1.0 (20240811.2233)
 -->
<!-- Pages: 1 -->
<svg width="432pt" height="329pt"
 viewBox="0.00 0.00 431.71 329.00" xmlns="http://www.w3.org/2000/svg" xmlns:xlink="http://www.w3.org/1999/xlink">
<g id="graph0" class="graph" transform="scale(1 1) rotate(0) translate(4 325)">
<polygon fill="white" stroke="none" points="-4,4 -4,-325 427.71,-325 427.71,4 -4,4"/>
<!-- TestCommand -->
<g id="node1" class="node">
<title>TestCommand</title>
<ellipse fill="none" stroke="black" cx="285.16" cy="-303" rx="66.19" ry="18"/>
<text text-anchor="middle" x="285.16" y="-297.95" font-family="Times,serif" font-size="14.00">TestCommand</text>
</g>
<!-- TestRunner -->
<g id="node2" class="node">
<title>TestRunner</title>
<ellipse fill="none" stroke="black" cx="240.16" cy="-214.5" rx="53.91" ry="18"/>
<text text-anchor="middle" x="240.16" y="-209.45" font-family="Times,serif" font-size="14.00">TestRunner</text>
<text text-anchor="middle" x="137.5" y="-252.2" font-family="Times,serif" font-size="14.00">&#45; runSingle()</text>
<text text-anchor="middle" x="137.5" y="-235.7" font-family="Times,serif" font-size="14.00">&#45; runContinuous()</text>
</g>
<!-- TestCommand&#45;&gt;TestRunner -->
<g id="edge1" class="edge">
<title>TestCommand&#45;&gt;TestRunner</title>
<path fill="none" stroke="black" d="M276.27,-284.91C269.98,-272.83 261.43,-256.38 254.22,-242.53"/>
<polygon fill="black" stroke="black" points="257.45,-241.15 249.73,-233.9 251.24,-244.38 257.45,-241.15"/>
<text text-anchor="middle" x="232.15" y="-261.69" font-family="Times,serif" font-size="14.00" fill="grey">single flow</text>
</g>
<!-- TestSuiteInteractor -->
<g id="node5" class="node">
<title>TestSuiteInteractor</title>
<ellipse fill="none" stroke="black" cx="342.16" cy="-160.5" rx="81.55" ry="18"/>
<text text-anchor="middle" x="342.16" y="-155.45" font-family="Times,serif" font-size="14.00">TestSuiteInteractor</text>
</g>
<!-- TestCommand&#45;&gt;TestSuiteInteractor -->
<g id="edge4" class="edge">
<title>TestCommand&#45;&gt;TestSuiteInteractor</title>
<path fill="none" stroke="black" d="M292.15,-284.77C301.81,-260.97 319.35,-217.74 330.87,-189.32"/>
<polygon fill="black" stroke="black" points="334.03,-190.85 334.55,-180.27 327.54,-188.22 334.03,-190.85"/>
<text text-anchor="middle" x="337.48" y="-253.7" font-family="Times,serif" font-size="14.00" fill="grey">many flows</text>
</g>
<!-- MaestroCommandRunner -->
<g id="node3" class="node">
<title>MaestroCommandRunner</title>
<ellipse fill="none" stroke="black" cx="210.16" cy="-106.5" rx="108.16" ry="18"/>
<text text-anchor="middle" x="210.16" y="-101.45" font-family="Times,serif" font-size="14.00">MaestroCommandRunner</text>
<text text-anchor="middle" x="51" y="-144.2" font-family="Times,serif" font-size="14.00">&#45; handles UI</text>
<text text-anchor="middle" x="51" y="-127.7" font-family="Times,serif" font-size="14.00">&#45; creates Orchestra</text>
</g>
<!-- TestRunner&#45;&gt;MaestroCommandRunner -->
<g id="edge2" class="edge">
<title>TestRunner&#45;&gt;MaestroCommandRunner</title>
<path fill="none" stroke="black" d="M235.34,-196.47C230.71,-180.11 223.63,-155.09 218.16,-135.74"/>
<polygon fill="black" stroke="black" points="221.57,-134.97 215.48,-126.3 214.84,-136.87 221.57,-134.97"/>
<text text-anchor="middle" x="180.21" y="-163.86" font-family="Times,serif" font-size="14.00">runCommands()</text>
</g>
<!-- Orchestra -->
<g id="node4" class="node">
<title>Orchestra</title>
<ellipse fill="none" stroke="black" cx="282.16" cy="-18" rx="46.75" ry="18"/>
<text text-anchor="middle" x="282.16" y="-12.95" font-family="Times,serif" font-size="14.00">Orchestra</text>
</g>
<!-- MaestroCommandRunner&#45;&gt;Orchestra -->
<g id="edge3" class="edge">
<title>MaestroCommandRunner&#45;&gt;Orchestra</title>
<path fill="none" stroke="black" d="M224.39,-88.41C234.88,-75.81 249.32,-58.46 261.13,-44.26"/>
<polygon fill="black" stroke="black" points="263.78,-46.56 267.49,-36.63 258.4,-42.08 263.78,-46.56"/>
<text text-anchor="middle" x="279.99" y="-57.2" font-family="Times,serif" font-size="14.00">runFlow()</text>
</g>
<!-- TestSuiteInteractor&#45;&gt;Orchestra -->
<g id="edge5" class="edge">
<title>TestSuiteInteractor&#45;&gt;Orchestra</title>
<g id="a_edge5"><a xlink:title="This edge connects node A to node B">
<path fill="none" stroke="black" d="M340.06,-142.23C336.75,-120.29 328.79,-81.93 311.16,-54 309.08,-50.7 306.71,-47.36 304.26,-44.13"/>
<polygon fill="black" stroke="black" points="307.19,-42.2 298.2,-36.6 301.74,-46.58 307.19,-42.2"/>
</a>
</g>
<text text-anchor="middle" x="364.2" y="-101.45" font-family="Times,serif" font-size="14.00">runFlow()</text>
</g>
</g>
</svg>
